# xmcd CD database file
#
# Track frame offsets:
#	150
#	14160
#	30172
#	48896
#	67430
#	89614
#	105027
#	122534
#
# Disc length: 1838 seconds
#
# Revision: 1
# Processed by: cddbd v1.4PL0 Copyright (c) Steve Scherf et al.
# Submitted via: CDex 1.40Release
#
DISCID=60072c08
DTITLE=The City Cowboys - out of place
DYEAR=2003
DGENRE=Country
TTITLE0=Whooped
TTITLE1=Four Letter Word
TTITLE2=Fallin'
TTITLE3=Me And You
TTITLE4=What I Love
TTITLE5=Complicated
TTITLE6=So Much More
TTITLE7=Giddyup
EXTD=YEAR: 2003 ID3G: 2
EXTT0=
EXTT1=
EXTT2=
EXTT3=
EXTT4=
EXTT5=
EXTT6=
EXTT7=
PLAYORDER=
